<svg width="16" height="16" viewBox="0 0 16 16" fill="none" xmlns="http://www.w3.org/2000/svg">
<path d="M8.70711 1.49993C8.31658 1.1094 7.68342 1.1094 7.29289 1.49993L0.646447 8.14637C0.451184 8.34164 0.451184 8.65822 0.646447 8.85348C0.841709 9.04874 1.15829 9.04874 1.35355 8.85348L8 2.20703L14.6464 8.85348C14.8417 9.04874 15.1583 9.04874 15.3536 8.85348C15.5488 8.65822 15.5488 8.34164 15.3536 8.14637L13 5.79282V2.49993C13 2.22378 12.7761 1.99993 12.5 1.99993H11.5C11.2239 1.99993 11 2.22378 11 2.49993V3.79282L8.70711 1.49993Z" fill="#020203"/>
<path d="M8 3.29297L12.712 8.00498C12.6418 8.00172 12.5711 8.00008 12.5 8.00008C10.0147 8.00008 8 10.0148 8 12.5C8 13.4251 8.27914 14.285 8.75777 15H3.5C2.67157 15 2 14.3285 2 13.5V9.29297L8 3.29297Z" fill="#020203"/>
<path d="M12.5 16C14.433 16 16 14.433 16 12.5C16 10.567 14.433 9 12.5 9C10.567 9 9 10.567 9 12.5C9 14.433 10.567 16 12.5 16ZM14.1787 11.5073L12.8435 13.7327C12.5924 14.1511 12.0151 14.2222 11.67 13.8772L10.8964 13.1035C10.7012 12.9082 10.7012 12.5918 10.8964 12.3965C11.0917 12.2012 11.4083 12.2012 11.6036 12.3965L12.1507 12.9437L13.3213 10.9928C13.4633 10.756 13.7705 10.6791 14.0072 10.8212C14.244 10.9633 14.3208 11.2705 14.1787 11.5073Z" fill="#098A16"/>
</svg>
